<?xml version="1.0" standalone="no"?>
<!DOCTYPE svg PUBLIC "-//W3C//DTD SVG 20010904//EN"
 "http://www.w3.org/TR/2001/REC-SVG-20010904/DTD/svg10.dtd">
<svg version="1.0" xmlns="http://www.w3.org/2000/svg"
 width="540.000000pt" height="332.000000pt" viewBox="0 0 540.000000 332.000000"
 preserveAspectRatio="xMidYMid meet">

<g transform="translate(0.000000,332.000000) scale(0.100000,-0.100000)"
fill="#000000" stroke="none">
<path d="M1953 2938 c-19 -22 -43 -119 -43 -169 0 -39 -4 -51 -21 -59 -20 -11
-20 -10 -14 34 8 48 0 96 -14 96 -16 0 -34 -62 -33 -110 1 -54 -1 -56 -78 -66
-32 -4 -50 -11 -50 -20 0 -8 9 -14 20 -14 17 0 19 -3 11 -19 -6 -10 -12 -42
-13 -71 -2 -32 -8 -55 -15 -58 -8 -2 -13 5 -13 17 0 37 -29 96 -41 84 -10 -10
-9 -41 3 -157 4 -43 -18 -43 -26 0 -10 50 -37 104 -53 104 -20 0 -6 -115 19
-159 10 -19 16 -41 13 -49 -4 -10 -14 1 -30 34 -14 27 -41 67 -61 89 l-35 40
4 -48 c5 -49 61 -177 78 -177 13 0 11 -13 -4 -34 -13 -17 -16 -15 -42 30 -28
48 -42 64 -59 64 -17 0 6 -76 35 -118 l29 -43 -30 -31 c-23 -23 -34 -28 -43
-19 -53 53 -34 -99 20 -161 9 -10 13 -25 9 -35 -6 -15 -11 -13 -32 15 -14 18
-39 39 -55 47 -27 14 -29 14 -29 -3 0 -29 56 -109 87 -124 24 -12 47 -58 28
-58 -4 0 -34 20 -67 45 -55 41 -98 57 -98 37 0 -18 106 -126 137 -138 23 -10
33 -21 33 -36 l0 -21 -22 21 c-20 18 -168 82 -190 82 -5 0 -8 -5 -8 -12 0 -23
97 -101 168 -135 52 -25 72 -41 72 -54 0 -25 -11 -24 -70 6 -50 25 -90 32 -90
16 0 -19 81 -80 119 -91 45 -12 48 -20 30 -82 -8 -31 -15 -38 -34 -38 -14 0
-25 -3 -25 -7 2 -29 113 -113 149 -113 11 0 25 -9 31 -20 10 -20 9 -20 -58
-14 -79 8 -97 -4 -55 -34 42 -29 97 -44 137 -37 28 6 36 3 45 -13 6 -12 11
-22 11 -24 0 -2 -34 -2 -75 0 -41 2 -87 1 -102 -2 -22 -6 -24 -9 -12 -21 8 -7
44 -22 81 -31 54 -15 76 -16 108 -8 33 9 42 8 55 -6 8 -9 15 -18 15 -21 0 -2
-28 -4 -63 -5 -66 -1 -177 -29 -177 -45 0 -5 12 -14 28 -20 34 -14 219 -7 249
9 19 10 24 9 37 -10 19 -26 12 -31 -65 -42 -26 -4 -55 -13 -65 -21 -17 -13
-17 -16 -4 -25 15 -11 121 -8 170 5 22 6 28 2 43 -30 22 -47 22 -54 -8 -65
-14 -5 -25 -13 -25 -18 0 -26 184 -44 207 -21 12 12 53 3 53 -11 0 -4 -19 -15
-42 -25 -48 -18 -90 -53 -82 -66 13 -22 135 4 174 38 22 18 37 23 55 19 37 -9
31 -20 -24 -46 -54 -25 -129 -94 -113 -104 13 -8 128 30 170 56 18 11 37 28
42 39 11 20 54 26 65 9 3 -5 -9 -16 -28 -23 -32 -14 -157 -148 -157 -169 0
-38 158 50 228 127 45 49 50 52 76 41 l27 -11 -61 -60 c-33 -33 -60 -67 -60
-77 0 -22 1 -22 55 2 24 11 63 42 86 69 38 44 45 48 66 38 27 -12 29 -22 8
-31 -8 -3 -15 -15 -15 -26 0 -24 26 -26 54 -5 17 13 22 13 42 0 46 -30 75 -4
39 35 -14 15 -13 18 9 28 21 9 27 6 60 -34 21 -24 59 -55 86 -69 59 -30 60
-30 60 -7 0 10 -27 44 -60 77 l-61 60 27 11 c26 11 31 8 77 -43 69 -75 227
-161 227 -123 0 19 -126 155 -159 170 -34 17 -32 30 5 30 13 0 28 -9 34 -19 5
-11 24 -28 42 -39 42 -26 157 -64 170 -56 16 10 -59 79 -113 104 -55 26 -61
37 -24 46 18 4 33 -1 55 -19 40 -34 161 -60 174 -38 8 13 -47 57 -89 71 -19 6
-35 15 -35 20 0 14 41 23 53 11 22 -22 207 -4 207 20 0 3 -11 11 -25 17 -30
14 -30 20 -8 67 15 31 21 36 43 30 53 -13 120 -17 157 -10 l38 7 -23 18 c-13
11 -44 22 -70 26 -78 11 -85 15 -66 42 13 19 18 20 37 10 33 -17 207 -23 252
-8 34 11 36 14 22 25 -25 18 -162 48 -202 43 -39 -4 -42 -2 -20 22 13 14 22
15 55 6 32 -8 54 -7 108 8 37 9 73 24 81 31 12 12 10 15 -12 21 -15 3 -61 4
-102 2 -41 -2 -75 -1 -75 2 1 23 24 35 72 35 58 0 152 38 145 59 -3 7 -29 10
-76 9 -68 -2 -71 -1 -61 17 6 11 21 20 33 20 26 0 90 41 124 79 29 33 29 41
-2 41 -19 0 -26 7 -34 38 -18 62 -15 70 30 82 38 11 119 72 119 91 0 16 -40 9
-90 -16 -59 -30 -70 -31 -70 -6 0 13 20 29 72 54 77 37 175 118 164 136 -9 14
-163 -42 -193 -71 l-23 -21 0 21 c0 15 10 26 33 36 17 8 39 21 47 28 26 22 90
101 90 111 0 18 -56 -5 -106 -44 -58 -45 -64 -46 -64 -19 0 12 12 26 31 35 33
17 89 97 89 127 0 17 -2 17 -29 3 -16 -8 -41 -29 -55 -47 -21 -28 -26 -30 -32
-15 -4 10 0 25 9 35 26 30 44 76 49 125 6 48 -5 60 -30 35 -8 -8 -18 -3 -41
21 l-30 32 29 42 c31 45 50 117 31 117 -10 0 -48 -48 -77 -96 -10 -18 -12 -17
-23 4 -10 19 -9 25 5 40 37 36 93 195 73 207 -11 7 -86 -93 -100 -134 -8 -23
-15 -29 -22 -22 -8 8 -5 22 10 48 24 44 42 163 24 163 -17 0 -49 -58 -56 -102
-8 -45 -32 -47 -27 -2 12 116 13 147 3 157 -12 12 -41 -47 -41 -84 0 -12 -5
-19 -12 -17 -8 3 -14 26 -15 57 -2 28 -7 61 -13 71 -9 17 -7 20 10 20 11 0 20
6 20 14 0 9 -18 16 -53 20 -69 9 -81 17 -73 50 7 27 -6 89 -24 116 -19 28 -31
-10 -25 -73 6 -57 6 -58 -14 -47 -17 8 -21 20 -21 59 0 26 -7 72 -16 102 -30
103 -54 102 -54 -2 0 -39 5 -79 11 -91 9 -17 8 -19 -8 -16 -13 2 -19 13 -20
41 -2 39 -37 120 -60 139 -19 15 -17 -47 2 -102 19 -52 19 -49 -5 -43 -11 3
-20 14 -20 25 0 34 -51 118 -72 118 -13 0 -10 -37 6 -75 21 -49 -3 -47 -35 2
-27 42 -109 95 -109 70 0 -8 11 -31 25 -51 l24 -36 -57 0 c-71 0 -132 -36
-132 -78 0 -27 97 -7 141 28 33 26 79 41 79 25 0 -3 -11 -22 -24 -43 -14 -20
-28 -50 -32 -65 -6 -26 -4 -28 17 -25 28 4 69 61 69 95 0 26 21 39 44 26 13
-7 12 -13 -4 -48 -22 -45 -25 -81 -9 -90 17 -11 48 25 61 72 12 40 15 43 31
31 17 -13 17 -15 -3 -55 -26 -54 -26 -83 -1 -83 23 0 51 36 51 65 0 35 13 47
34 32 17 -12 16 -16 -15 -65 l-33 -53 34 -31 c48 -43 94 -61 141 -53 35 6 79
-7 79 -23 0 -4 -20 -15 -44 -25 -24 -10 -54 -29 -66 -42 -21 -22 -21 -25 -6
-31 26 -10 89 12 116 41 28 30 46 32 60 6 8 -17 3 -23 -34 -47 -50 -32 -75
-71 -52 -80 19 -7 83 24 101 49 12 17 17 18 30 7 22 -19 20 -24 -35 -59 -61
-39 -68 -50 -46 -67 23 -16 43 -9 84 30 27 26 34 28 42 16 15 -24 7 -33 -48
-59 -57 -27 -70 -56 -28 -67 14 -3 27 -15 30 -28 9 -35 44 -75 87 -96 38 -20
77 -65 66 -76 -3 -3 -31 -1 -61 6 -101 21 -158 -13 -79 -47 26 -11 56 -14 95
-10 52 5 58 3 60 -14 0 -10 1 -24 2 -31 1 -8 -17 -11 -57 -9 -56 2 -107 -16
-107 -38 0 -18 61 -33 109 -27 40 5 50 3 55 -10 11 -28 -3 -34 -73 -34 -83 0
-105 -16 -71 -50 19 -19 29 -21 67 -15 25 4 52 9 61 12 12 5 14 1 8 -23 -4
-16 -9 -30 -10 -31 -1 -1 -32 3 -69 10 -50 8 -70 8 -78 0 -16 -16 -4 -44 21
-50 24 -6 27 -38 5 -47 -21 -7 -12 -60 21 -135 25 -56 29 -87 15 -109 -6 -10
-16 -3 -41 25 -30 35 -95 83 -112 83 -5 0 -8 -11 -8 -24 0 -37 41 -88 93 -113
26 -13 47 -27 47 -31 0 -4 -7 -18 -16 -30 l-15 -22 -46 35 c-26 20 -57 38 -70
41 -26 7 -53 -1 -53 -15 0 -20 50 -68 89 -86 45 -20 47 -23 28 -49 -13 -17
-16 -16 -61 18 -50 38 -87 52 -105 41 -14 -8 -13 -36 2 -56 15 -19 70 -49 92
-49 8 0 15 -3 15 -7 -1 -12 -26 -43 -35 -43 -4 0 -32 23 -61 50 -57 54 -65 58
-83 36 -9 -11 -9 -20 -2 -35 17 -31 13 -41 -17 -52 -30 -10 -46 -47 -58 -139
-5 -39 -14 -60 -33 -78 -24 -22 -26 -22 -29 -6 -13 80 -25 124 -43 153 -16 27
-22 31 -34 21 -25 -21 -19 -118 10 -165 13 -22 25 -43 25 -47 0 -11 -58 -39
-63 -30 -3 4 -12 33 -21 64 -15 52 -51 98 -77 98 -30 0 -8 -132 27 -160 20
-17 18 -25 -12 -38 -24 -11 -26 -10 -40 25 -53 134 -66 150 -95 114 -27 -33
-24 -52 15 -109 35 -52 33 -62 -14 -62 -21 0 -26 11 -35 76 -7 50 -28 94 -45
94 -5 0 -17 -11 -25 -24 -15 -22 -14 -29 7 -94 l24 -70 -37 -11 c-51 -15 -51
-15 -44 29 4 22 4 53 0 70 -5 25 -11 30 -28 28 -31 -4 -45 -74 -24 -116 l15
-30 -47 -20 c-45 -18 -47 -18 -90 0 -34 14 -42 22 -36 36 22 56 11 132 -19
132 -69 0 -49 229 42 483 l35 99 51 -4 c185 -15 358 77 432 229 16 32 38 94
49 137 l20 80 50 13 c28 7 66 13 85 13 19 0 41 4 49 9 28 18 -27 33 -110 29
-74 -3 -79 -2 -79 18 0 11 -7 43 -15 71 -33 110 -133 143 -229 78 -20 -14 -39
-25 -41 -25 -3 0 -5 16 -5 36 0 73 -61 145 -136 160 l-31 6 0 -69 c1 -83 -28
-172 -138 -423 -82 -186 -92 -200 -180 -243 -197 -97 -355 -17 -355 179 0 92
14 143 75 269 101 210 273 386 420 431 43 12 55 9 36 -11 -20 -23 -57 -176
-45 -188 4 -3 50 33 104 81 53 48 116 103 140 122 41 34 43 37 36 73 -13 69
-126 156 -126 97 0 -21 -20 -70 -29 -70 -3 0 -28 16 -55 35 -41 29 -58 35
-101 35 -135 0 -335 -171 -459 -392 -83 -149 -129 -365 -108 -504 30 -192 122
-278 297 -278 77 0 101 7 221 60 7 3 2 -29 -11 -80 -47 -174 -55 -337 -22
-447 11 -37 12 -49 1 -63 -7 -10 -15 -44 -19 -77 -8 -64 -18 -75 -59 -65 l-25
6 35 51 c39 58 42 77 15 110 -29 36 -42 20 -95 -114 -14 -35 -17 -37 -38 -26
-33 17 -33 17 -14 38 20 22 45 86 45 116 1 60 -45 51 -79 -15 -11 -22 -20 -44
-20 -49 0 -5 -4 -21 -10 -36 -9 -25 -11 -25 -40 -10 -16 9 -30 19 -30 23 0 4
12 25 25 47 46 75 25 221 -21 150 -19 -29 -44 -116 -44 -152 0 -21 -2 -22 -20
-11 -22 14 -35 45 -45 103 -14 82 -29 114 -57 124 -32 11 -32 10 -18 47 11 27
-1 54 -22 54 -5 0 -34 -23 -64 -52 -53 -50 -55 -51 -74 -33 -24 22 -26 35 -5
35 25 0 92 38 99 55 3 9 6 25 6 36 0 38 -75 14 -138 -45 -23 -21 -24 -21 -38
-2 -20 28 -19 31 27 51 43 20 92 70 86 89 -8 26 -51 17 -108 -23 l-58 -41 -15
22 c-9 12 -16 26 -16 30 0 4 21 18 48 31 51 25 92 76 92 113 0 13 -2 24 -5 24
-18 0 -66 -34 -104 -74 -32 -32 -47 -42 -53 -33 -13 21 -9 53 16 108 33 75 42
128 21 135 -22 9 -18 25 12 50 18 15 24 26 19 39 -5 15 -14 17 -59 11 -28 -3
-62 -9 -73 -12 -17 -4 -23 0 -28 21 -9 35 -7 37 35 25 52 -15 84 -12 104 10
30 33 5 50 -76 50 -66 0 -69 1 -69 23 0 22 3 23 69 23 85 -1 109 14 72 45 -20
16 -37 20 -85 18 -42 -2 -61 1 -60 9 1 7 2 21 3 31 1 17 7 19 59 14 39 -4 69
-1 95 10 79 34 22 68 -79 47 -30 -7 -58 -10 -60 -7 -13 12 23 57 58 73 44 20
85 63 94 99 3 14 16 26 30 29 42 11 29 40 -28 67 -55 26 -63 35 -49 58 8 12
17 8 50 -22 46 -41 50 -43 76 -24 23 18 16 28 -45 68 -42 27 -48 35 -39 50 12
24 21 24 36 1 14 -23 80 -55 98 -48 25 9 3 48 -46 78 -42 27 -46 32 -36 49 16
25 29 24 57 -6 27 -29 90 -51 116 -41 15 6 15 9 -6 31 -12 13 -42 32 -66 42
-24 10 -44 21 -44 25 0 17 45 30 81 24 47 -8 92 9 138 52 l33 30 -31 56 c-31
53 -31 55 -12 65 29 16 31 14 31 -22 0 -40 24 -77 51 -77 25 0 25 31 -1 87
-18 41 -18 43 -1 53 16 8 20 3 31 -35 13 -47 42 -81 59 -70 16 9 13 45 -9 92
-18 41 -18 42 1 48 26 8 39 -2 39 -29 0 -33 42 -90 69 -94 21 -3 23 -1 17 25
-4 15 -18 45 -32 65 -13 21 -24 40 -24 43 0 16 51 1 82 -25 43 -36 138 -55
138 -28 0 42 -61 78 -132 78 l-57 0 24 36 c38 55 33 69 -14 44 -36 -18 -60
-41 -87 -86 -19 -31 -25 -10 -12 39 13 51 7 67 -17 47 -22 -18 -55 -84 -55
-109 0 -16 -27 -38 -36 -28 -2 1 3 21 11 42 17 47 20 119 5 110 -20 -13 -60
-105 -60 -139 0 -26 -6 -38 -22 -47 -19 -10 -20 -9 -12 7 12 27 17 165 6 176
-5 5 -13 4 -19 -4z m-10 -273 c21 -44 21 -45 -1 -45 -10 0 -31 13 -46 29 -26
27 -27 30 -9 40 29 17 38 13 56 -24z m1539 24 c20 -11 19 -11 -8 -40 -15 -16
-36 -29 -45 -29 -16 0 -16 3 -2 40 17 43 23 46 55 29z m-1628 -55 c7 -25 -10
-48 -56 -75 -16 -9 -18 -5 -18 34 0 36 4 46 23 55 34 17 44 14 51 -14z m1705
15 c29 -10 31 -14 31 -56 l0 -45 -37 28 c-21 15 -39 28 -41 30 -3 2 9 54 13
54 1 0 16 -5 34 -11z m-1930 -436 c8 -6 -34 -32 -51 -33 -22 0 -23 9 -2 38 13
19 18 21 32 10 10 -7 19 -14 21 -15z m2181 -24 c0 -14 -33 -10 -54 6 -20 15
-20 15 0 30 17 13 21 12 37 -6 9 -12 17 -25 17 -30z m-2283 -99 c-21 -63 -31
-73 -42 -40 -4 14 3 32 25 60 17 22 33 40 34 40 1 0 -6 -27 -17 -60z m2333 20
c22 -28 29 -46 25 -60 -11 -33 -21 -23 -42 40 -11 33 -18 60 -17 60 1 0 17
-18 34 -40z m-786 -122 c10 -14 16 -44 16 -83 l0 -61 -52 -17 c-29 -9 -92 -37
-140 -61 -96 -50 -93 -53 -50 45 33 77 156 196 204 199 4 0 14 -10 22 -22z
m-25 -280 c-30 -77 -67 -137 -108 -175 -48 -44 -131 -75 -192 -71 l-47 3 26
63 c17 39 40 72 60 89 39 30 251 142 269 143 9 0 7 -15 -8 -52z m-1485 -133
c-14 -19 -30 -35 -35 -35 -5 0 -9 16 -9 35 0 33 2 35 36 35 l35 0 -27 -35z
m2286 0 c0 -19 -3 -35 -7 -35 -5 0 -21 16 -36 35 l-28 35 36 0 c33 0 35 -2 35
-35z m-2297 -172 l16 -52 -25 11 c-19 9 -24 19 -24 48 0 31 8 56 16 48 1 -2 9
-26 17 -55z m2297 9 c0 -27 -6 -41 -21 -50 -12 -7 -22 -12 -24 -10 -1 2 4 27
13 55 16 59 32 61 32 5z m-1966 -404 c3 -13 6 -32 6 -43 0 -18 -2 -17 -27 7
-22 23 -24 29 -13 42 17 22 27 20 34 -6z m1636 6 c11 -13 9 -19 -13 -42 -25
-24 -27 -25 -27 -7 0 29 11 65 20 65 4 0 13 -7 20 -16z m-1539 -156 c25 -20
36 -35 30 -41 -15 -15 -36 -2 -59 37 -12 20 -19 36 -16 36 3 0 23 -14 45 -32z
m1437 -4 c-23 -39 -44 -52 -59 -37 -7 7 4 21 32 42 24 17 44 31 46 31 1 0 -7
-16 -19 -36z m-873 -72 c11 -8 16 -132 5 -132 -14 0 -70 22 -70 28 0 3 8 29
17 59 16 51 27 61 48 45z"/>
</g>
</svg>
